<svg xmlns="http://www.w3.org/2000/svg" viewBox="0 0 100 50"><defs><style>.a{fill:#fff;}.b{fill:#111;}.c{fill:#1434cb;}</style></defs><g transform="translate(-1861 1398)"><path class="c" d="M35.657,5.531l-4.851,23.3h-5.88l4.851-23.28h5.88ZM60.051,20.583l3.12-8.777L64.9,20.583Zm6.583,8.229H72L67.32,5.531H62.314a2.616,2.616,0,0,0-2.434,1.8l-8.657,21.48h6.069l1.2-3.394h7.457l.686,3.394Zm-15.223-7.7c0-6.086-8.143-6.446-8.143-9.137a2.294,2.294,0,0,1,2.417-1.971,10.558,10.558,0,0,1,5.726,1.08L52.44,6.08A14.331,14.331,0,0,0,47.074,5c-5.709,0-9.857,3.223-9.857,7.714,0,3.394,2.931,5.177,5.006,6.257,2.263,1.063,3.12,1.783,2.949,2.863,0,1.611-1.714,2.331-3.463,2.331a14.349,14.349,0,0,1-6.051-1.44l-1.029,5.006A16,16,0,0,0,41.023,29C47.417,29.171,51.411,25.949,51.411,21.114ZM27.343,5.531,18,28.829H11.777L7.1,10.194A2.381,2.381,0,0,0,5.726,8.223,19.714,19.714,0,0,0,0,6.251l.171-.72h9.874a2.673,2.673,0,0,1,2.589,2.331l2.417,13.423,6.24-15.754Z" transform="translate(1873 -1390.003)"/></g></svg>